<svg width="1024" height="753" viewBox="0 0 1024 753" fill="none" xmlns="http://www.w3.org/2000/svg">
<g opacity="0.2" filter="url(#filter0_f_175_198)">
<ellipse cx="606.5" cy="116" rx="670.5" ry="350" fill="#338AF3"/>
</g>
<path d="M127.035 352C128.53 352 129.662 352.63 130.431 353.891C131.213 355.138 131.605 356.953 131.605 359.336C131.605 361.719 131.213 363.541 130.431 364.802C129.662 366.063 128.53 366.693 127.035 366.693C125.554 366.693 124.422 366.063 123.639 364.802C122.856 363.541 122.465 361.719 122.465 359.336C122.465 356.967 122.856 355.152 123.639 353.891C124.422 352.63 125.554 352 127.035 352ZM123.953 359.336C123.953 361.026 124.107 362.35 124.415 363.306L129.068 354.099C128.579 353.448 127.901 353.122 127.035 353.122C126.071 353.122 125.316 353.635 124.771 354.66C124.226 355.672 123.953 357.23 123.953 359.336ZM127.035 365.55C128.013 365.55 128.775 365.044 129.32 364.033C129.865 363.008 130.137 361.442 130.137 359.336C130.137 357.549 129.963 356.163 129.613 355.18L124.96 364.469C125.463 365.19 126.154 365.55 127.035 365.55Z" fill="url(#paint0_linear_175_198)" fill-opacity="0.6"/>
<path d="M128.293 389.135H131.374V390.236H123.387V389.135H126.951V377.455L123.555 379.471L122.968 378.536L127.161 375.959H128.293V389.135Z" fill="url(#paint1_linear_175_198)" fill-opacity="0.6"/>
<path d="M127.035 399.502C128.53 399.502 129.662 400.133 130.431 401.393C131.213 402.64 131.605 404.455 131.605 406.838C131.605 409.221 131.213 411.043 130.431 412.304C129.662 413.565 128.53 414.195 127.035 414.195C125.554 414.195 124.422 413.565 123.639 412.304C122.856 411.043 122.465 409.221 122.465 406.838C122.465 404.469 122.856 402.654 123.639 401.393C124.422 400.133 125.554 399.502 127.035 399.502ZM123.953 406.838C123.953 408.529 124.107 409.852 124.415 410.808L129.068 401.601C128.579 400.95 127.901 400.624 127.035 400.624C126.071 400.624 125.316 401.137 124.771 402.162C124.226 403.174 123.953 404.732 123.953 406.838ZM127.035 413.052C128.013 413.052 128.775 412.546 129.32 411.535C129.865 410.51 130.137 408.944 130.137 406.838C130.137 405.051 129.963 403.665 129.613 402.682L124.96 411.971C125.463 412.692 126.154 413.052 127.035 413.052Z" fill="url(#paint2_linear_175_198)" fill-opacity="0.6"/>
<path d="M128.293 436.637H131.374V437.738H123.387V436.637H126.951V424.957L123.555 426.973L122.968 426.038L127.161 423.461H128.293V436.637Z" fill="url(#paint3_linear_175_198)" fill-opacity="0.6"/>
<path d="M128.293 460.388H131.374V461.489H123.387V460.388H126.951V448.708L123.555 450.724L122.968 449.789L127.161 447.212H128.293V460.388Z" fill="url(#paint4_linear_175_198)" fill-opacity="0.6"/>
<path d="M127.035 470.755C128.53 470.755 129.662 471.386 130.431 472.646C131.213 473.893 131.605 475.708 131.605 478.091C131.605 480.474 131.213 482.296 130.431 483.557C129.662 484.818 128.53 485.448 127.035 485.448C125.554 485.448 124.422 484.818 123.639 483.557C122.856 482.296 122.465 480.474 122.465 478.091C122.465 475.722 122.856 473.907 123.639 472.646C124.422 471.386 125.554 470.755 127.035 470.755ZM123.953 478.091C123.953 479.782 124.107 481.105 124.415 482.061L129.068 472.854C128.579 472.203 127.901 471.878 127.035 471.878C126.071 471.878 125.316 472.39 124.771 473.415C124.226 474.427 123.953 475.985 123.953 478.091ZM127.035 484.305C128.013 484.305 128.775 483.8 129.32 482.788C129.865 481.763 130.137 480.197 130.137 478.091C130.137 476.304 129.963 474.919 129.613 473.935L124.96 483.225C125.463 483.945 126.154 484.305 127.035 484.305Z" fill="url(#paint5_linear_175_198)" fill-opacity="0.6"/>
<path d="M128.293 507.89H131.374V508.992H123.387V507.89H126.951V496.21L123.555 498.226L122.968 497.291L127.161 494.714H128.293V507.89Z" fill="url(#paint6_linear_175_198)" fill-opacity="0.6"/>
<path d="M127.035 518.257C128.53 518.257 129.662 518.888 130.431 520.149C131.213 521.396 131.605 523.211 131.605 525.594C131.605 527.977 131.213 529.798 130.431 531.059C129.662 532.32 128.53 532.95 127.035 532.95C125.554 532.95 124.422 532.32 123.639 531.059C122.856 529.798 122.465 527.977 122.465 525.594C122.465 523.224 122.856 521.409 123.639 520.149C124.422 518.888 125.554 518.257 127.035 518.257ZM123.953 525.594C123.953 527.284 124.107 528.607 124.415 529.563L129.068 520.356C128.579 519.705 127.901 519.38 127.035 519.38C126.071 519.38 125.316 519.892 124.771 520.918C124.226 521.929 123.953 523.488 123.953 525.594ZM127.035 531.807C128.013 531.807 128.775 531.302 129.32 530.29C129.865 529.265 130.137 527.699 130.137 525.594C130.137 523.806 129.963 522.421 129.613 521.437L124.96 530.727C125.463 531.447 126.154 531.807 127.035 531.807Z" fill="url(#paint7_linear_175_198)" fill-opacity="0.6"/>
<path d="M127.035 542.008C128.53 542.008 129.662 542.639 130.431 543.9C131.213 545.147 131.605 546.962 131.605 549.345C131.605 551.728 131.213 553.549 130.431 554.81C129.662 556.071 128.53 556.701 127.035 556.701C125.554 556.701 124.422 556.071 123.639 554.81C122.856 553.549 122.465 551.728 122.465 549.345C122.465 546.975 122.856 545.16 123.639 543.9C124.422 542.639 125.554 542.008 127.035 542.008ZM123.953 549.345C123.953 551.035 124.107 552.358 124.415 553.314L129.068 544.107C128.579 543.456 127.901 543.131 127.035 543.131C126.071 543.131 125.316 543.643 124.771 544.669C124.226 545.68 123.953 547.239 123.953 549.345ZM127.035 555.558C128.013 555.558 128.775 555.053 129.32 554.041C129.865 553.016 130.137 551.451 130.137 549.345C130.137 547.557 129.963 546.172 129.613 545.188L124.96 554.478C125.463 555.198 126.154 555.558 127.035 555.558Z" fill="url(#paint8_linear_175_198)" fill-opacity="0.6"/>
<path d="M128.293 579.143H131.374V580.245H123.387V579.143H126.951V567.464L123.555 569.48L122.968 568.544L127.161 565.967H128.293V579.143Z" fill="url(#paint9_linear_175_198)" fill-opacity="0.6"/>
<path d="M127.035 589.511C128.53 589.511 129.662 590.141 130.431 591.402C131.213 592.649 131.605 594.464 131.605 596.847C131.605 599.23 131.213 601.052 130.431 602.312C129.662 603.573 128.53 604.204 127.035 604.204C125.554 604.204 124.422 603.573 123.639 602.312C122.856 601.052 122.465 599.23 122.465 596.847C122.465 594.478 122.856 592.663 123.639 591.402C124.422 590.141 125.554 589.511 127.035 589.511ZM123.953 596.847C123.953 598.537 124.107 599.86 124.415 600.816L129.068 591.61C128.579 590.958 127.901 590.633 127.035 590.633C126.071 590.633 125.316 591.145 124.771 592.171C124.226 593.182 123.953 594.741 123.953 596.847ZM127.035 603.061C128.013 603.061 128.775 602.555 129.32 601.543C129.865 600.518 130.137 598.953 130.137 596.847C130.137 595.059 129.963 593.674 129.613 592.69L124.96 601.98C125.463 602.7 126.154 603.061 127.035 603.061Z" fill="url(#paint10_linear_175_198)" fill-opacity="0.6"/>
<path d="M128.293 626.645H131.374V627.747H123.387V626.645H126.951V614.966L123.555 616.982L122.968 616.046L127.161 613.469H128.293V626.645Z" fill="url(#paint11_linear_175_198)" fill-opacity="0.6"/>
<path d="M128.293 650.396H131.374V651.498H123.387V650.396H126.951V638.717L123.555 640.733L122.968 639.798L127.161 637.221H128.293V650.396Z" fill="url(#paint12_linear_175_198)" fill-opacity="0.6"/>
<path d="M165.965 399.502C167.46 399.502 168.592 400.133 169.361 401.393C170.144 402.64 170.535 404.455 170.535 406.838C170.535 409.221 170.144 411.043 169.361 412.304C168.592 413.565 167.46 414.195 165.965 414.195C164.484 414.195 163.352 413.565 162.569 412.304C161.787 411.043 161.395 409.221 161.395 406.838C161.395 404.469 161.787 402.654 162.569 401.393C163.352 400.133 164.484 399.502 165.965 399.502ZM162.884 406.838C162.884 408.529 163.037 409.852 163.345 410.808L167.998 401.601C167.509 400.95 166.832 400.624 165.965 400.624C165.001 400.624 164.246 401.137 163.701 402.162C163.156 403.174 162.884 404.732 162.884 406.838ZM165.965 413.052C166.943 413.052 167.705 412.546 168.25 411.535C168.795 410.51 169.068 408.944 169.068 406.838C169.068 405.051 168.893 403.665 168.543 402.682L163.89 411.971C164.393 412.692 165.085 413.052 165.965 413.052Z" fill="url(#paint13_linear_175_198)" fill-opacity="0.6"/>
<path d="M167.223 436.637H170.304V437.738H162.318V436.637H165.881V424.957L162.485 426.973L161.898 426.038L166.091 423.461H167.223V436.637Z" fill="url(#paint14_linear_175_198)" fill-opacity="0.6"/>
<path d="M165.965 447.004C167.46 447.004 168.592 447.635 169.361 448.895C170.144 450.142 170.535 451.957 170.535 454.34C170.535 456.723 170.144 458.545 169.361 459.806C168.592 461.067 167.46 461.697 165.965 461.697C164.484 461.697 163.352 461.067 162.569 459.806C161.787 458.545 161.395 456.723 161.395 454.34C161.395 451.971 161.787 450.156 162.569 448.895C163.352 447.635 164.484 447.004 165.965 447.004ZM162.884 454.34C162.884 456.031 163.037 457.354 163.345 458.31L167.998 449.103C167.509 448.452 166.832 448.126 165.965 448.126C165.001 448.126 164.246 448.639 163.701 449.664C163.156 450.676 162.884 452.234 162.884 454.34ZM165.965 460.554C166.943 460.554 167.705 460.049 168.25 459.037C168.795 458.012 169.068 456.446 169.068 454.34C169.068 452.553 168.893 451.168 168.543 450.184L163.89 459.474C164.393 460.194 165.085 460.554 165.965 460.554Z" fill="url(#paint15_linear_175_198)" fill-opacity="0.6"/>
<path d="M165.965 470.755C167.46 470.755 168.592 471.386 169.361 472.646C170.144 473.893 170.535 475.708 170.535 478.091C170.535 480.474 170.144 482.296 169.361 483.557C168.592 484.818 167.46 485.448 165.965 485.448C164.484 485.448 163.352 484.818 162.569 483.557C161.787 482.296 161.395 480.474 161.395 478.091C161.395 475.722 161.787 473.907 162.569 472.646C163.352 471.386 164.484 470.755 165.965 470.755ZM162.884 478.091C162.884 479.782 163.037 481.105 163.345 482.061L167.998 472.854C167.509 472.203 166.832 471.878 165.965 471.878C165.001 471.878 164.246 472.39 163.701 473.415C163.156 474.427 162.884 475.985 162.884 478.091ZM165.965 484.305C166.943 484.305 167.705 483.8 168.25 482.788C168.795 481.763 169.068 480.197 169.068 478.091C169.068 476.304 168.893 474.919 168.543 473.935L163.89 483.225C164.393 483.945 165.085 484.305 165.965 484.305Z" fill="url(#paint16_linear_175_198)" fill-opacity="0.6"/>
<path d="M167.223 507.89H170.304V508.992H162.318V507.89H165.881V496.21L162.485 498.226L161.898 497.291L166.091 494.714H167.223V507.89Z" fill="url(#paint17_linear_175_198)" fill-opacity="0.6"/>
<path d="M165.965 518.257C167.46 518.257 168.592 518.888 169.361 520.149C170.144 521.396 170.535 523.211 170.535 525.594C170.535 527.977 170.144 529.798 169.361 531.059C168.592 532.32 167.46 532.95 165.965 532.95C164.484 532.95 163.352 532.32 162.569 531.059C161.787 529.798 161.395 527.977 161.395 525.594C161.395 523.224 161.787 521.409 162.569 520.149C163.352 518.888 164.484 518.257 165.965 518.257ZM162.884 525.594C162.884 527.284 163.037 528.607 163.345 529.563L167.998 520.356C167.509 519.705 166.832 519.38 165.965 519.38C165.001 519.38 164.246 519.892 163.701 520.918C163.156 521.929 162.884 523.488 162.884 525.594ZM165.965 531.807C166.943 531.807 167.705 531.302 168.25 530.29C168.795 529.265 169.068 527.699 169.068 525.594C169.068 523.806 168.893 522.421 168.543 521.437L163.89 530.727C164.393 531.447 165.085 531.807 165.965 531.807Z" fill="url(#paint18_linear_175_198)" fill-opacity="0.6"/>
<path d="M167.223 555.392H170.304V556.494H162.318V555.392H165.881V543.713L162.485 545.728L161.898 544.793L166.091 542.216H167.223V555.392Z" fill="url(#paint19_linear_175_198)" fill-opacity="0.6"/>
<path d="M165.965 565.76C167.46 565.76 168.592 566.39 169.361 567.651C170.144 568.898 170.535 570.713 170.535 573.096C170.535 575.479 170.144 577.301 169.361 578.561C168.592 579.822 167.46 580.453 165.965 580.453C164.484 580.453 163.352 579.822 162.569 578.561C161.787 577.301 161.395 575.479 161.395 573.096C161.395 570.726 161.787 568.911 162.569 567.651C163.352 566.39 164.484 565.76 165.965 565.76ZM162.884 573.096C162.884 574.786 163.037 576.109 163.345 577.065L167.998 567.859C167.509 567.207 166.832 566.882 165.965 566.882C165.001 566.882 164.246 567.394 163.701 568.42C163.156 569.431 162.884 570.99 162.884 573.096ZM165.965 579.31C166.943 579.31 167.705 578.804 168.25 577.792C168.795 576.767 169.068 575.202 169.068 573.096C169.068 571.308 168.893 569.923 168.543 568.939L163.89 578.229C164.393 578.949 165.085 579.31 165.965 579.31Z" fill="url(#paint20_linear_175_198)" fill-opacity="0.6"/>
<path d="M165.965 589.511C167.46 589.511 168.592 590.141 169.361 591.402C170.144 592.649 170.535 594.464 170.535 596.847C170.535 599.23 170.144 601.052 169.361 602.312C168.592 603.573 167.46 604.204 165.965 604.204C164.484 604.204 163.352 603.573 162.569 602.312C161.787 601.052 161.395 599.23 161.395 596.847C161.395 594.478 161.787 592.663 162.569 591.402C163.352 590.141 164.484 589.511 165.965 589.511ZM162.884 596.847C162.884 598.537 163.037 599.86 163.345 600.816L167.998 591.61C167.509 590.958 166.832 590.633 165.965 590.633C165.001 590.633 164.246 591.145 163.701 592.171C163.156 593.182 162.884 594.741 162.884 596.847ZM165.965 603.061C166.943 603.061 167.705 602.555 168.25 601.543C168.795 600.518 169.068 598.953 169.068 596.847C169.068 595.059 168.893 593.674 168.543 592.69L163.89 601.98C164.393 602.7 165.085 603.061 165.965 603.061Z" fill="url(#paint21_linear_175_198)" fill-opacity="0.6"/>
<path d="M167.223 626.645H170.304V627.747H162.318V626.645H165.881V614.966L162.485 616.982L161.898 616.046L166.091 613.469H167.223V626.645Z" fill="url(#paint22_linear_175_198)" fill-opacity="0.6"/>
<path d="M165.965 637.013C167.46 637.013 168.592 637.643 169.361 638.904C170.144 640.151 170.535 641.966 170.535 644.349C170.535 646.732 170.144 648.554 169.361 649.815C168.592 651.075 167.46 651.706 165.965 651.706C164.484 651.706 163.352 651.075 162.569 649.815C161.787 648.554 161.395 646.732 161.395 644.349C161.395 641.98 161.787 640.165 162.569 638.904C163.352 637.643 164.484 637.013 165.965 637.013ZM162.884 644.349C162.884 646.039 163.037 647.362 163.345 648.318L167.998 639.112C167.509 638.461 166.832 638.135 165.965 638.135C165.001 638.135 164.246 638.648 163.701 639.673C163.156 640.684 162.884 642.243 162.884 644.349ZM165.965 650.563C166.943 650.563 167.705 650.057 168.25 649.046C168.795 648.02 169.068 646.455 169.068 644.349C169.068 642.562 168.893 641.176 168.543 640.192L163.89 649.482C164.393 650.202 165.085 650.563 165.965 650.563Z" fill="url(#paint23_linear_175_198)" fill-opacity="0.6"/>
<path d="M167.223 674.148H170.304V675.249H162.318V674.148H165.881V662.468L162.485 664.484L161.898 663.549L166.091 660.972H167.223V674.148Z" fill="url(#paint24_linear_175_198)" fill-opacity="0.6"/>
<path d="M167.223 697.899H170.304V699H162.318V697.899H165.881V686.219L162.485 688.235L161.898 687.3L166.091 684.723H167.223V697.899Z" fill="url(#paint25_linear_175_198)" fill-opacity="0.6"/>
<path d="M107.57 423.253C109.065 423.253 110.197 423.884 110.966 425.144C111.748 426.391 112.14 428.206 112.14 430.589C112.14 432.972 111.748 434.794 110.966 436.055C110.197 437.316 109.065 437.946 107.57 437.946C106.088 437.946 104.956 437.316 104.174 436.055C103.391 434.794 103 432.972 103 430.589C103 428.22 103.391 426.405 104.174 425.144C104.956 423.884 106.088 423.253 107.57 423.253ZM104.488 430.589C104.488 432.28 104.642 433.603 104.95 434.559L109.603 425.352C109.114 424.701 108.436 424.375 107.57 424.375C106.606 424.375 105.851 424.888 105.306 425.913C104.761 426.925 104.488 428.483 104.488 430.589ZM107.57 436.803C108.548 436.803 109.31 436.297 109.855 435.286C110.4 434.261 110.672 432.695 110.672 430.589C110.672 428.802 110.498 427.417 110.148 426.433L105.495 435.722C105.998 436.443 106.689 436.803 107.57 436.803Z" fill="url(#paint26_linear_175_198)" fill-opacity="0.6"/>
<path d="M107.57 447.004C109.065 447.004 110.197 447.635 110.966 448.895C111.748 450.142 112.14 451.957 112.14 454.34C112.14 456.723 111.748 458.545 110.966 459.806C110.197 461.067 109.065 461.697 107.57 461.697C106.088 461.697 104.956 461.067 104.174 459.806C103.391 458.545 103 456.723 103 454.34C103 451.971 103.391 450.156 104.174 448.895C104.956 447.635 106.088 447.004 107.57 447.004ZM104.488 454.34C104.488 456.031 104.642 457.354 104.95 458.31L109.603 449.103C109.114 448.452 108.436 448.126 107.57 448.126C106.606 448.126 105.851 448.639 105.306 449.664C104.761 450.676 104.488 452.234 104.488 454.34ZM107.57 460.554C108.548 460.554 109.31 460.049 109.855 459.037C110.4 458.012 110.672 456.446 110.672 454.34C110.672 452.553 110.498 451.168 110.148 450.184L105.495 459.474C105.998 460.194 106.689 460.554 107.57 460.554Z" fill="url(#paint27_linear_175_198)" fill-opacity="0.6"/>
<path d="M108.828 484.139H111.909V485.24H103.922V484.139H107.486V472.459L104.09 474.475L103.503 473.54L107.696 470.963H108.828V484.139Z" fill="url(#paint28_linear_175_198)" fill-opacity="0.6"/>
<path d="M107.57 494.506C109.065 494.506 110.197 495.137 110.966 496.398C111.748 497.644 112.14 499.459 112.14 501.842C112.14 504.225 111.748 506.047 110.966 507.308C110.197 508.569 109.065 509.199 107.57 509.199C106.088 509.199 104.956 508.569 104.174 507.308C103.391 506.047 103 504.225 103 501.842C103 499.473 103.391 497.658 104.174 496.398C104.956 495.137 106.088 494.506 107.57 494.506ZM104.488 501.842C104.488 503.533 104.642 504.856 104.95 505.812L109.603 496.605C109.114 495.954 108.436 495.629 107.57 495.629C106.606 495.629 105.851 496.141 105.306 497.166C104.761 498.178 104.488 499.737 104.488 501.842ZM107.57 508.056C108.548 508.056 109.31 507.551 109.855 506.539C110.4 505.514 110.672 503.948 110.672 501.842C110.672 500.055 110.498 498.67 110.148 497.686L105.495 506.976C105.998 507.696 106.689 508.056 107.57 508.056Z" fill="url(#paint29_linear_175_198)" fill-opacity="0.6"/>
<path d="M108.828 531.641H111.909V532.743H103.922V531.641H107.486V519.962L104.09 521.977L103.503 521.042L107.696 518.465H108.828V531.641Z" fill="url(#paint30_linear_175_198)" fill-opacity="0.6"/>
<path d="M108.828 555.392H111.909V556.494H103.922V555.392H107.486V543.713L104.09 545.728L103.503 544.793L107.696 542.216H108.828V555.392Z" fill="url(#paint31_linear_175_198)" fill-opacity="0.6"/>
<path d="M147.758 389.135H150.839V390.236H142.853V389.135H146.416V377.455L143.02 379.471L142.433 378.536L146.626 375.959H147.758V389.135Z" fill="url(#paint32_linear_175_198)" fill-opacity="0.6"/>
<path d="M146.5 399.502C147.995 399.502 149.127 400.133 149.896 401.393C150.679 402.64 151.07 404.455 151.07 406.838C151.07 409.221 150.679 411.043 149.896 412.304C149.127 413.565 147.995 414.195 146.5 414.195C145.019 414.195 143.887 413.565 143.104 412.304C142.321 411.043 141.93 409.221 141.93 406.838C141.93 404.469 142.321 402.654 143.104 401.393C143.887 400.133 145.019 399.502 146.5 399.502ZM143.419 406.838C143.419 408.529 143.572 409.852 143.88 410.808L148.533 401.601C148.044 400.95 147.366 400.624 146.5 400.624C145.536 400.624 144.781 401.137 144.236 402.162C143.691 403.174 143.419 404.732 143.419 406.838ZM146.5 413.052C147.478 413.052 148.24 412.546 148.785 411.535C149.33 410.51 149.602 408.944 149.602 406.838C149.602 405.051 149.428 403.665 149.078 402.682L144.425 411.971C144.928 412.692 145.62 413.052 146.5 413.052Z" fill="url(#paint33_linear_175_198)" fill-opacity="0.6"/>
<path d="M147.758 436.637H150.839V437.738H142.853V436.637H146.416V424.957L143.02 426.973L142.433 426.038L146.626 423.461H147.758V436.637Z" fill="url(#paint34_linear_175_198)" fill-opacity="0.6"/>
<path d="M147.758 460.388H150.839V461.489H142.853V460.388H146.416V448.708L143.02 450.724L142.433 449.789L146.626 447.212H147.758V460.388Z" fill="url(#paint35_linear_175_198)" fill-opacity="0.6"/>
<path d="M146.5 470.755C147.995 470.755 149.127 471.386 149.896 472.646C150.679 473.893 151.07 475.708 151.07 478.091C151.07 480.474 150.679 482.296 149.896 483.557C149.127 484.818 147.995 485.448 146.5 485.448C145.019 485.448 143.887 484.818 143.104 483.557C142.321 482.296 141.93 480.474 141.93 478.091C141.93 475.722 142.321 473.907 143.104 472.646C143.887 471.386 145.019 470.755 146.5 470.755ZM143.419 478.091C143.419 479.782 143.572 481.105 143.88 482.061L148.533 472.854C148.044 472.203 147.366 471.878 146.5 471.878C145.536 471.878 144.781 472.39 144.236 473.415C143.691 474.427 143.419 475.985 143.419 478.091ZM146.5 484.305C147.478 484.305 148.24 483.8 148.785 482.788C149.33 481.763 149.602 480.197 149.602 478.091C149.602 476.304 149.428 474.919 149.078 473.935L144.425 483.225C144.928 483.945 145.62 484.305 146.5 484.305Z" fill="url(#paint36_linear_175_198)" fill-opacity="0.6"/>
<path d="M147.758 507.89H150.839V508.992H142.853V507.89H146.416V496.21L143.02 498.226L142.433 497.291L146.626 494.714H147.758V507.89Z" fill="url(#paint37_linear_175_198)" fill-opacity="0.6"/>
<path d="M147.758 531.641H150.839V532.743H142.853V531.641H146.416V519.962L143.02 521.977L142.433 521.042L146.626 518.465H147.758V531.641Z" fill="url(#paint38_linear_175_198)" fill-opacity="0.6"/>
<path d="M146.5 542.008C147.995 542.008 149.127 542.639 149.896 543.9C150.679 545.147 151.07 546.962 151.07 549.345C151.07 551.728 150.679 553.549 149.896 554.81C149.127 556.071 147.995 556.701 146.5 556.701C145.019 556.701 143.887 556.071 143.104 554.81C142.321 553.549 141.93 551.728 141.93 549.345C141.93 546.975 142.321 545.16 143.104 543.9C143.887 542.639 145.019 542.008 146.5 542.008ZM143.419 549.345C143.419 551.035 143.572 552.358 143.88 553.314L148.533 544.107C148.044 543.456 147.366 543.131 146.5 543.131C145.536 543.131 144.781 543.643 144.236 544.669C143.691 545.68 143.419 547.239 143.419 549.345ZM146.5 555.558C147.478 555.558 148.24 555.053 148.785 554.041C149.33 553.016 149.602 551.451 149.602 549.345C149.602 547.557 149.428 546.172 149.078 545.188L144.425 554.478C144.928 555.198 145.62 555.558 146.5 555.558Z" fill="url(#paint39_linear_175_198)" fill-opacity="0.6"/>
<path d="M147.758 579.143H150.839V580.245H142.853V579.143H146.416V567.464L143.02 569.48L142.433 568.544L146.626 565.967H147.758V579.143Z" fill="url(#paint40_linear_175_198)" fill-opacity="0.6"/>
<path d="M146.5 589.511C147.995 589.511 149.127 590.141 149.896 591.402C150.679 592.649 151.07 594.464 151.07 596.847C151.07 599.23 150.679 601.052 149.896 602.312C149.127 603.573 147.995 604.204 146.5 604.204C145.019 604.204 143.887 603.573 143.104 602.312C142.321 601.052 141.93 599.23 141.93 596.847C141.93 594.478 142.321 592.663 143.104 591.402C143.887 590.141 145.019 589.511 146.5 589.511ZM143.419 596.847C143.419 598.537 143.572 599.86 143.88 600.816L148.533 591.61C148.044 590.958 147.366 590.633 146.5 590.633C145.536 590.633 144.781 591.145 144.236 592.171C143.691 593.182 143.419 594.741 143.419 596.847ZM146.5 603.061C147.478 603.061 148.24 602.555 148.785 601.543C149.33 600.518 149.602 598.953 149.602 596.847C149.602 595.059 149.428 593.674 149.078 592.69L144.425 601.98C144.928 602.7 145.62 603.061 146.5 603.061Z" fill="url(#paint41_linear_175_198)" fill-opacity="0.6"/>
<path d="M185.43 375.751C186.926 375.751 188.057 376.381 188.826 377.642C189.609 378.889 190 380.704 190 383.087C190 385.47 189.609 387.292 188.826 388.553C188.057 389.814 186.926 390.444 185.43 390.444C183.949 390.444 182.817 389.814 182.034 388.553C181.252 387.292 180.86 385.47 180.86 383.087C180.86 380.718 181.252 378.903 182.034 377.642C182.817 376.381 183.949 375.751 185.43 375.751ZM182.349 383.087C182.349 384.777 182.502 386.101 182.81 387.057L187.464 377.85C186.974 377.199 186.297 376.873 185.43 376.873C184.466 376.873 183.711 377.386 183.166 378.411C182.621 379.423 182.349 380.981 182.349 383.087ZM185.43 389.301C186.408 389.301 187.17 388.795 187.715 387.784C188.26 386.759 188.533 385.193 188.533 383.087C188.533 381.3 188.358 379.914 188.009 378.931L183.355 388.22C183.858 388.941 184.55 389.301 185.43 389.301Z" fill="url(#paint42_linear_175_198)" fill-opacity="0.6"/>
<path d="M186.688 412.886H189.769V413.987H181.783V412.886H185.346V401.206L181.95 403.222L181.363 402.287L185.556 399.71H186.688V412.886Z" fill="url(#paint43_linear_175_198)" fill-opacity="0.6"/>
<path d="M186.688 436.637H189.769V437.738H181.783V436.637H185.346V424.957L181.95 426.973L181.363 426.038L185.556 423.461H186.688V436.637Z" fill="url(#paint44_linear_175_198)" fill-opacity="0.6"/>
<path d="M185.43 447.004C186.926 447.004 188.057 447.635 188.826 448.895C189.609 450.142 190 451.957 190 454.34C190 456.723 189.609 458.545 188.826 459.806C188.057 461.067 186.926 461.697 185.43 461.697C183.949 461.697 182.817 461.067 182.034 459.806C181.252 458.545 180.86 456.723 180.86 454.34C180.86 451.971 181.252 450.156 182.034 448.895C182.817 447.635 183.949 447.004 185.43 447.004ZM182.349 454.34C182.349 456.031 182.502 457.354 182.81 458.31L187.464 449.103C186.974 448.452 186.297 448.126 185.43 448.126C184.466 448.126 183.711 448.639 183.166 449.664C182.621 450.676 182.349 452.234 182.349 454.34ZM185.43 460.554C186.408 460.554 187.17 460.049 187.715 459.037C188.26 458.012 188.533 456.446 188.533 454.34C188.533 452.553 188.358 451.168 188.009 450.184L183.355 459.474C183.858 460.194 184.55 460.554 185.43 460.554Z" fill="url(#paint45_linear_175_198)" fill-opacity="0.6"/>
<path d="M185.43 470.755C186.926 470.755 188.057 471.386 188.826 472.646C189.609 473.893 190 475.708 190 478.091C190 480.474 189.609 482.296 188.826 483.557C188.057 484.818 186.926 485.448 185.43 485.448C183.949 485.448 182.817 484.818 182.034 483.557C181.252 482.296 180.86 480.474 180.86 478.091C180.86 475.722 181.252 473.907 182.034 472.646C182.817 471.386 183.949 470.755 185.43 470.755ZM182.349 478.091C182.349 479.782 182.502 481.105 182.81 482.061L187.464 472.854C186.974 472.203 186.297 471.878 185.43 471.878C184.466 471.878 183.711 472.39 183.166 473.415C182.621 474.427 182.349 475.985 182.349 478.091ZM185.43 484.305C186.408 484.305 187.17 483.8 187.715 482.788C188.26 481.763 188.533 480.197 188.533 478.091C188.533 476.304 188.358 474.919 188.009 473.935L183.355 483.225C183.858 483.945 184.55 484.305 185.43 484.305Z" fill="url(#paint46_linear_175_198)" fill-opacity="0.6"/>
<g opacity="0.6">
<path d="M1013.93 52C1015.36 52 1016.44 52.605 1017.17 53.8149C1017.92 55.0115 1018.29 56.7532 1018.29 59.0401C1018.29 61.327 1017.92 63.0754 1017.17 64.2853C1016.44 65.4952 1015.36 66.1002 1013.93 66.1002C1012.52 66.1002 1011.44 65.4952 1010.69 64.2853C1009.94 63.0754 1009.57 61.327 1009.57 59.0401C1009.57 56.7665 1009.94 55.0248 1010.69 53.8149C1011.44 52.605 1012.52 52 1013.93 52ZM1010.99 59.0401C1010.99 60.6622 1011.14 61.932 1011.43 62.8494L1015.87 54.0143C1015.4 53.3894 1014.76 53.077 1013.93 53.077C1013.01 53.077 1012.29 53.5689 1011.77 54.5528C1011.25 55.5234 1010.99 57.0192 1010.99 59.0401ZM1013.93 65.0033C1014.86 65.0033 1015.59 64.518 1016.11 63.5474C1016.63 62.5635 1016.89 61.0611 1016.89 59.0401C1016.89 57.325 1016.72 55.9954 1016.39 55.0514L1011.95 63.9662C1012.43 64.6576 1013.09 65.0033 1013.93 65.0033Z" fill="url(#paint47_linear_175_198)"/>
<path d="M1015.13 87.6365H1018.07V88.6936H1010.45V87.6365H1013.85V76.4282L1010.61 78.3627L1010.05 77.4653L1014.05 74.9922H1015.13V87.6365Z" fill="url(#paint48_linear_175_198)"/>
<path d="M1013.93 97.5856C1015.36 97.5856 1016.44 98.1906 1017.17 99.4005C1017.92 100.597 1018.29 102.339 1018.29 104.626C1018.29 106.913 1017.92 108.661 1017.17 109.871C1016.44 111.081 1015.36 111.686 1013.93 111.686C1012.52 111.686 1011.44 111.081 1010.69 109.871C1009.94 108.661 1009.57 106.913 1009.57 104.626C1009.57 102.352 1009.94 100.61 1010.69 99.4005C1011.44 98.1906 1012.52 97.5856 1013.93 97.5856ZM1010.99 104.626C1010.99 106.248 1011.14 107.518 1011.43 108.435L1015.87 99.5999C1015.4 98.975 1014.76 98.6626 1013.93 98.6626C1013.01 98.6626 1012.29 99.1545 1011.77 100.138C1011.25 101.109 1010.99 102.605 1010.99 104.626ZM1013.93 110.589C1014.86 110.589 1015.59 110.104 1016.11 109.133C1016.63 108.149 1016.89 106.647 1016.89 104.626C1016.89 102.911 1016.72 101.581 1016.39 100.637L1011.95 109.552C1012.43 110.243 1013.09 110.589 1013.93 110.589Z" fill="url(#paint49_linear_175_198)"/>
<path d="M1015.13 133.222H1018.07V134.279H1010.45V133.222H1013.85V122.014L1010.61 123.948L1010.05 123.051L1014.05 120.578H1015.13V133.222Z" fill="url(#paint50_linear_175_198)"/>
<path d="M1015.13 156.015H1018.07V157.072H1010.45V156.015H1013.85V144.807L1010.61 146.741L1010.05 145.844L1014.05 143.371H1015.13V156.015Z" fill="url(#paint51_linear_175_198)"/>
<path d="M1013.93 165.964C1015.36 165.964 1016.44 166.569 1017.17 167.779C1017.92 168.976 1018.29 170.717 1018.29 173.004C1018.29 175.291 1017.92 177.039 1017.17 178.249C1016.44 179.459 1015.36 180.064 1013.93 180.064C1012.52 180.064 1011.44 179.459 1010.69 178.249C1009.94 177.039 1009.57 175.291 1009.57 173.004C1009.57 170.731 1009.94 168.989 1010.69 167.779C1011.44 166.569 1012.52 165.964 1013.93 165.964ZM1010.99 173.004C1010.99 174.626 1011.14 175.896 1011.43 176.813L1015.87 167.978C1015.4 167.353 1014.76 167.041 1013.93 167.041C1013.01 167.041 1012.29 167.533 1011.77 168.517C1011.25 169.487 1010.99 170.983 1010.99 173.004ZM1013.93 178.967C1014.86 178.967 1015.59 178.482 1016.11 177.511C1016.63 176.528 1016.89 175.025 1016.89 173.004C1016.89 171.289 1016.72 169.959 1016.39 169.015L1011.95 177.93C1012.43 178.622 1013.09 178.967 1013.93 178.967Z" fill="url(#paint52_linear_175_198)"/>
<path d="M1015.13 201.601H1018.07V202.658H1010.45V201.601H1013.85V190.392L1010.61 192.327L1010.05 191.429L1014.05 188.956H1015.13V201.601Z" fill="url(#paint53_linear_175_198)"/>
<path d="M1013.93 211.55C1015.36 211.55 1016.44 212.155 1017.17 213.365C1017.92 214.561 1018.29 216.303 1018.29 218.59C1018.29 220.877 1017.92 222.625 1017.17 223.835C1016.44 225.045 1015.36 225.65 1013.93 225.65C1012.52 225.65 1011.44 225.045 1010.69 223.835C1009.94 222.625 1009.57 220.877 1009.57 218.59C1009.57 216.316 1009.94 214.574 1010.69 213.365C1011.44 212.155 1012.52 211.55 1013.93 211.55ZM1010.99 218.59C1010.99 220.212 1011.14 221.482 1011.43 222.399L1015.87 213.564C1015.4 212.939 1014.76 212.627 1013.93 212.627C1013.01 212.627 1012.29 213.119 1011.77 214.102C1011.25 215.073 1010.99 216.569 1010.99 218.59ZM1013.93 224.553C1014.86 224.553 1015.59 224.068 1016.11 223.097C1016.63 222.113 1016.89 220.611 1016.89 218.59C1016.89 216.875 1016.72 215.545 1016.39 214.601L1011.95 223.516C1012.43 224.207 1013.09 224.553 1013.93 224.553Z" fill="url(#paint54_linear_175_198)"/>
<path d="M1013.93 234.342C1015.36 234.342 1016.44 234.947 1017.17 236.157C1017.92 237.354 1018.29 239.096 1018.29 241.383C1018.29 243.669 1017.92 245.418 1017.17 246.628C1016.44 247.838 1015.36 248.443 1013.93 248.443C1012.52 248.443 1011.44 247.838 1010.69 246.628C1009.94 245.418 1009.57 243.669 1009.57 241.383C1009.57 239.109 1009.94 237.367 1010.69 236.157C1011.44 234.947 1012.52 234.342 1013.93 234.342ZM1010.99 241.383C1010.99 243.005 1011.14 244.274 1011.43 245.192L1015.87 236.357C1015.4 235.732 1014.76 235.419 1013.93 235.419C1013.01 235.419 1012.29 235.911 1011.77 236.895C1011.25 237.866 1010.99 239.362 1010.99 241.383ZM1013.93 247.346C1014.86 247.346 1015.59 246.86 1016.11 245.89C1016.63 244.906 1016.89 243.404 1016.89 241.383C1016.89 239.667 1016.72 238.338 1016.39 237.394L1011.95 246.309C1012.43 247 1013.09 247.346 1013.93 247.346Z" fill="url(#paint55_linear_175_198)"/>
<path d="M1015.13 269.979H1018.07V271.036H1010.45V269.979H1013.85V258.771L1010.61 260.705L1010.05 259.808L1014.05 257.335H1015.13V269.979Z" fill="url(#paint56_linear_175_198)"/>
<path d="M1013.93 279.928C1015.36 279.928 1016.44 280.533 1017.17 281.743C1017.92 282.94 1018.29 284.681 1018.29 286.968C1018.29 289.255 1017.92 291.003 1017.17 292.213C1016.44 293.423 1015.36 294.028 1013.93 294.028C1012.52 294.028 1011.44 293.423 1010.69 292.213C1009.94 291.003 1009.57 289.255 1009.57 286.968C1009.57 284.695 1009.94 282.953 1010.69 281.743C1011.44 280.533 1012.52 279.928 1013.93 279.928ZM1010.99 286.968C1010.99 288.59 1011.14 289.86 1011.43 290.777L1015.87 281.942C1015.4 281.317 1014.76 281.005 1013.93 281.005C1013.01 281.005 1012.29 281.497 1011.77 282.481C1011.25 283.451 1010.99 284.947 1010.99 286.968ZM1013.93 292.931C1014.86 292.931 1015.59 292.446 1016.11 291.475C1016.63 290.492 1016.89 288.989 1016.89 286.968C1016.89 285.253 1016.72 283.923 1016.39 282.979L1011.95 291.894C1012.43 292.586 1013.09 292.931 1013.93 292.931Z" fill="url(#paint57_linear_175_198)"/>
<path d="M1015.13 315.565H1018.07V316.622H1010.45V315.565H1013.85V304.356L1010.61 306.291L1010.05 305.393L1014.05 302.92H1015.13V315.565Z" fill="url(#paint58_linear_175_198)"/>
<path d="M1015.13 338.357H1018.07V339.414H1010.45V338.357H1013.85V327.149L1010.61 329.084L1010.05 328.186L1014.05 325.713H1015.13V338.357Z" fill="url(#paint59_linear_175_198)"/>
<path d="M1051.07 97.5856C1052.5 97.5856 1053.58 98.1906 1054.31 99.4005C1055.06 100.597 1055.43 102.339 1055.43 104.626C1055.43 106.913 1055.06 108.661 1054.31 109.871C1053.58 111.081 1052.5 111.686 1051.07 111.686C1049.66 111.686 1048.58 111.081 1047.83 109.871C1047.08 108.661 1046.71 106.913 1046.71 104.626C1046.71 102.352 1047.08 100.61 1047.83 99.4005C1048.58 98.1906 1049.66 97.5856 1051.07 97.5856ZM1048.13 104.626C1048.13 106.248 1048.28 107.518 1048.57 108.435L1053.01 99.5999C1052.54 98.975 1051.9 98.6626 1051.07 98.6626C1050.15 98.6626 1049.43 99.1545 1048.91 100.138C1048.39 101.109 1048.13 102.605 1048.13 104.626ZM1051.07 110.589C1052 110.589 1052.73 110.104 1053.25 109.133C1053.77 108.149 1054.03 106.647 1054.03 104.626C1054.03 102.911 1053.86 101.581 1053.53 100.637L1049.09 109.552C1049.57 110.243 1050.23 110.589 1051.07 110.589Z" fill="url(#paint60_linear_175_198)"/>
<path d="M1052.27 133.222H1055.21V134.279H1047.59V133.222H1050.99V122.014L1047.75 123.948L1047.19 123.051L1051.19 120.578H1052.27V133.222Z" fill="url(#paint61_linear_175_198)"/>
<path d="M1051.07 143.171C1052.5 143.171 1053.58 143.776 1054.31 144.986C1055.06 146.183 1055.43 147.924 1055.43 150.211C1055.43 152.498 1055.06 154.247 1054.31 155.457C1053.58 156.666 1052.5 157.271 1051.07 157.271C1049.66 157.271 1048.58 156.666 1047.83 155.457C1047.08 154.247 1046.71 152.498 1046.71 150.211C1046.71 147.938 1047.08 146.196 1047.83 144.986C1048.58 143.776 1049.66 143.171 1051.07 143.171ZM1048.13 150.211C1048.13 151.833 1048.28 153.103 1048.57 154.021L1053.01 145.186C1052.54 144.561 1051.9 144.248 1051.07 144.248C1050.15 144.248 1049.43 144.74 1048.91 145.724C1048.39 146.695 1048.13 148.19 1048.13 150.211ZM1051.07 156.174C1052 156.174 1052.73 155.689 1053.25 154.719C1053.77 153.735 1054.03 152.232 1054.03 150.211C1054.03 148.496 1053.86 147.167 1053.53 146.223L1049.09 155.137C1049.57 155.829 1050.23 156.174 1051.07 156.174Z" fill="url(#paint62_linear_175_198)"/>
<path d="M1051.07 165.964C1052.5 165.964 1053.58 166.569 1054.31 167.779C1055.06 168.976 1055.43 170.717 1055.43 173.004C1055.43 175.291 1055.06 177.039 1054.31 178.249C1053.58 179.459 1052.5 180.064 1051.07 180.064C1049.66 180.064 1048.58 179.459 1047.83 178.249C1047.08 177.039 1046.71 175.291 1046.71 173.004C1046.71 170.731 1047.08 168.989 1047.83 167.779C1048.58 166.569 1049.66 165.964 1051.07 165.964ZM1048.13 173.004C1048.13 174.626 1048.28 175.896 1048.57 176.813L1053.01 167.978C1052.54 167.353 1051.9 167.041 1051.07 167.041C1050.15 167.041 1049.43 167.533 1048.91 168.517C1048.39 169.487 1048.13 170.983 1048.13 173.004ZM1051.07 178.967C1052 178.967 1052.73 178.482 1053.25 177.511C1053.77 176.528 1054.03 175.025 1054.03 173.004C1054.03 171.289 1053.86 169.959 1053.53 169.015L1049.09 177.93C1049.57 178.622 1050.23 178.967 1051.07 178.967Z" fill="url(#paint63_linear_175_198)"/>
<path d="M1052.27 201.601H1055.21V202.658H1047.59V201.601H1050.99V190.392L1047.75 192.327L1047.19 191.429L1051.19 188.956H1052.27V201.601Z" fill="url(#paint64_linear_175_198)"/>
<path d="M1051.07 211.55C1052.5 211.55 1053.58 212.155 1054.31 213.365C1055.06 214.561 1055.43 216.303 1055.43 218.59C1055.43 220.877 1055.06 222.625 1054.31 223.835C1053.58 225.045 1052.5 225.65 1051.07 225.65C1049.66 225.65 1048.58 225.045 1047.83 223.835C1047.08 222.625 1046.71 220.877 1046.71 218.59C1046.71 216.316 1047.08 214.574 1047.83 213.365C1048.58 212.155 1049.66 211.55 1051.07 211.55ZM1048.13 218.59C1048.13 220.212 1048.28 221.482 1048.57 222.399L1053.01 213.564C1052.54 212.939 1051.9 212.627 1051.07 212.627C1050.15 212.627 1049.43 213.119 1048.91 214.102C1048.39 215.073 1048.13 216.569 1048.13 218.59ZM1051.07 224.553C1052 224.553 1052.73 224.068 1053.25 223.097C1053.77 222.113 1054.03 220.611 1054.03 218.59C1054.03 216.875 1053.86 215.545 1053.53 214.601L1049.09 223.516C1049.57 224.207 1050.23 224.553 1051.07 224.553Z" fill="url(#paint65_linear_175_198)"/>
<path d="M1052.27 247.186H1055.21V248.243H1047.59V247.186H1050.99V235.978L1047.75 237.912L1047.19 237.015L1051.19 234.542H1052.27V247.186Z" fill="url(#paint66_linear_175_198)"/>
<path d="M1051.07 257.135C1052.5 257.135 1053.58 257.74 1054.31 258.95C1055.06 260.147 1055.43 261.888 1055.43 264.175C1055.43 266.462 1055.06 268.211 1054.31 269.421C1053.58 270.63 1052.5 271.235 1051.07 271.235C1049.66 271.235 1048.58 270.63 1047.83 269.421C1047.08 268.211 1046.71 266.462 1046.71 264.175C1046.71 261.902 1047.08 260.16 1047.83 258.95C1048.58 257.74 1049.66 257.135 1051.07 257.135ZM1048.13 264.175C1048.13 265.797 1048.28 267.067 1048.57 267.985L1053.01 259.15C1052.54 258.525 1051.9 258.212 1051.07 258.212C1050.15 258.212 1049.43 258.704 1048.91 259.688C1048.39 260.659 1048.13 262.154 1048.13 264.175ZM1051.07 270.139C1052 270.139 1052.73 269.653 1053.25 268.683C1053.77 267.699 1054.03 266.196 1054.03 264.175C1054.03 262.46 1053.86 261.131 1053.53 260.187L1049.09 269.101C1049.57 269.793 1050.23 270.139 1051.07 270.139Z" fill="url(#paint67_linear_175_198)"/>
<path d="M1051.07 279.928C1052.5 279.928 1053.58 280.533 1054.31 281.743C1055.06 282.94 1055.43 284.681 1055.43 286.968C1055.43 289.255 1055.06 291.003 1054.31 292.213C1053.58 293.423 1052.5 294.028 1051.07 294.028C1049.66 294.028 1048.58 293.423 1047.83 292.213C1047.08 291.003 1046.71 289.255 1046.71 286.968C1046.71 284.695 1047.08 282.953 1047.83 281.743C1048.58 280.533 1049.66 279.928 1051.07 279.928ZM1048.13 286.968C1048.13 288.59 1048.28 289.86 1048.57 290.777L1053.01 281.942C1052.54 281.317 1051.9 281.005 1051.07 281.005C1050.15 281.005 1049.43 281.497 1048.91 282.481C1048.39 283.451 1048.13 284.947 1048.13 286.968ZM1051.07 292.931C1052 292.931 1052.73 292.446 1053.25 291.475C1053.77 290.492 1054.03 288.989 1054.03 286.968C1054.03 285.253 1053.86 283.923 1053.53 282.979L1049.09 291.894C1049.57 292.586 1050.23 292.931 1051.07 292.931Z" fill="url(#paint68_linear_175_198)"/>
<path d="M1052.27 315.565H1055.21V316.622H1047.59V315.565H1050.99V304.356L1047.75 306.291L1047.19 305.393L1051.19 302.92H1052.27V315.565Z" fill="url(#paint69_linear_175_198)"/>
<path d="M1051.07 325.514C1052.5 325.514 1053.58 326.119 1054.31 327.329C1055.06 328.525 1055.43 330.267 1055.43 332.554C1055.43 334.841 1055.06 336.589 1054.31 337.799C1053.58 339.009 1052.5 339.614 1051.07 339.614C1049.66 339.614 1048.58 339.009 1047.83 337.799C1047.08 336.589 1046.71 334.841 1046.71 332.554C1046.71 330.28 1047.08 328.538 1047.83 327.329C1048.58 326.119 1049.66 325.514 1051.07 325.514ZM1048.13 332.554C1048.13 334.176 1048.28 335.446 1048.57 336.363L1053.01 327.528C1052.54 326.903 1051.9 326.591 1051.07 326.591C1050.15 326.591 1049.43 327.083 1048.91 328.066C1048.39 329.037 1048.13 330.533 1048.13 332.554ZM1051.07 338.517C1052 338.517 1052.73 338.032 1053.25 337.061C1053.77 336.077 1054.03 334.575 1054.03 332.554C1054.03 330.839 1053.86 329.509 1053.53 328.565L1049.09 337.48C1049.57 338.171 1050.23 338.517 1051.07 338.517Z" fill="url(#paint70_linear_175_198)"/>
<path d="M1052.27 361.15H1055.21V362.207H1047.59V361.15H1050.99V349.942L1047.75 351.876L1047.19 350.979L1051.19 348.506H1052.27V361.15Z" fill="url(#paint71_linear_175_198)"/>
<path d="M1052.27 383.943H1055.21V385H1047.59V383.943H1050.99V372.735L1047.75 374.669L1047.19 373.772L1051.19 371.299H1052.27V383.943Z" fill="url(#paint72_linear_175_198)"/>
<path d="M995.36 120.378C996.786 120.378 997.866 120.983 998.599 122.193C999.346 123.39 999.719 125.132 999.719 127.419C999.719 129.705 999.346 131.454 998.599 132.664C997.866 133.874 996.786 134.479 995.36 134.479C993.946 134.479 992.867 133.874 992.12 132.664C991.373 131.454 991 129.705 991 127.419C991 125.145 991.373 123.403 992.12 122.193C992.867 120.983 993.946 120.378 995.36 120.378ZM992.42 127.419C992.42 129.041 992.567 130.31 992.86 131.228L997.3 122.393C996.833 121.768 996.186 121.455 995.36 121.455C994.44 121.455 993.72 121.947 993.2 122.931C992.68 123.902 992.42 125.398 992.42 127.419ZM995.36 133.382C996.293 133.382 997.02 132.896 997.54 131.926C998.06 130.942 998.319 129.44 998.319 127.419C998.319 125.703 998.153 124.374 997.82 123.43L993.38 132.345C993.86 133.036 994.52 133.382 995.36 133.382Z" fill="url(#paint73_linear_175_198)"/>
<path d="M995.36 143.171C996.786 143.171 997.866 143.776 998.599 144.986C999.346 146.183 999.719 147.924 999.719 150.211C999.719 152.498 999.346 154.247 998.599 155.457C997.866 156.666 996.786 157.271 995.36 157.271C993.946 157.271 992.867 156.666 992.12 155.457C991.373 154.247 991 152.498 991 150.211C991 147.938 991.373 146.196 992.12 144.986C992.867 143.776 993.946 143.171 995.36 143.171ZM992.42 150.211C992.42 151.833 992.567 153.103 992.86 154.021L997.3 145.186C996.833 144.561 996.186 144.248 995.36 144.248C994.44 144.248 993.72 144.74 993.2 145.724C992.68 146.695 992.42 148.19 992.42 150.211ZM995.36 156.174C996.293 156.174 997.02 155.689 997.54 154.719C998.06 153.735 998.319 152.232 998.319 150.211C998.319 148.496 998.153 147.167 997.82 146.223L993.38 155.137C993.86 155.829 994.52 156.174 995.36 156.174Z" fill="url(#paint74_linear_175_198)"/>
<path d="M996.56 178.808H999.499V179.865H991.88V178.808H995.28V167.599L992.04 169.534L991.48 168.636L995.48 166.163H996.56V178.808Z" fill="url(#paint75_linear_175_198)"/>
<path d="M995.36 188.757C996.786 188.757 997.866 189.362 998.599 190.572C999.346 191.768 999.719 193.51 999.719 195.797C999.719 198.084 999.346 199.832 998.599 201.042C997.866 202.252 996.786 202.857 995.36 202.857C993.946 202.857 992.867 202.252 992.12 201.042C991.373 199.832 991 198.084 991 195.797C991 193.523 991.373 191.782 992.12 190.572C992.867 189.362 993.946 188.757 995.36 188.757ZM992.42 195.797C992.42 197.419 992.567 198.689 992.86 199.606L997.3 190.771C996.833 190.146 996.186 189.834 995.36 189.834C994.44 189.834 993.72 190.326 993.2 191.31C992.68 192.28 992.42 193.776 992.42 195.797ZM995.36 201.76C996.293 201.76 997.02 201.275 997.54 200.304C998.06 199.32 998.319 197.818 998.319 195.797C998.319 194.082 998.153 192.752 997.82 191.808L993.38 200.723C993.86 201.414 994.52 201.76 995.36 201.76Z" fill="url(#paint76_linear_175_198)"/>
<path d="M996.56 224.393H999.499V225.45H991.88V224.393H995.28V213.185L992.04 215.12L991.48 214.222L995.48 211.749H996.56V224.393Z" fill="url(#paint77_linear_175_198)"/>
<path d="M996.56 247.186H999.499V248.243H991.88V247.186H995.28V235.978L992.04 237.912L991.48 237.015L995.48 234.542H996.56V247.186Z" fill="url(#paint78_linear_175_198)"/>
<path d="M1033.7 87.6365H1036.64V88.6936H1029.02V87.6365H1032.42V76.4282L1029.18 78.3627L1028.62 77.4653L1032.62 74.9922H1033.7V87.6365Z" fill="url(#paint79_linear_175_198)"/>
<path d="M1032.5 97.5856C1033.93 97.5856 1035.01 98.1906 1035.74 99.4005C1036.49 100.597 1036.86 102.339 1036.86 104.626C1036.86 106.913 1036.49 108.661 1035.74 109.871C1035.01 111.081 1033.93 111.686 1032.5 111.686C1031.09 111.686 1030.01 111.081 1029.26 109.871C1028.51 108.661 1028.14 106.913 1028.14 104.626C1028.14 102.352 1028.51 100.61 1029.26 99.4005C1030.01 98.1906 1031.09 97.5856 1032.5 97.5856ZM1029.56 104.626C1029.56 106.248 1029.71 107.518 1030 108.435L1034.44 99.5999C1033.97 98.975 1033.33 98.6626 1032.5 98.6626C1031.58 98.6626 1030.86 99.1545 1030.34 100.138C1029.82 101.109 1029.56 102.605 1029.56 104.626ZM1032.5 110.589C1033.43 110.589 1034.16 110.104 1034.68 109.133C1035.2 108.149 1035.46 106.647 1035.46 104.626C1035.46 102.911 1035.29 101.581 1034.96 100.637L1030.52 109.552C1031 110.243 1031.66 110.589 1032.5 110.589Z" fill="url(#paint80_linear_175_198)"/>
<path d="M1033.7 133.222H1036.64V134.279H1029.02V133.222H1032.42V122.014L1029.18 123.948L1028.62 123.051L1032.62 120.578H1033.7V133.222Z" fill="url(#paint81_linear_175_198)"/>
<path d="M1033.7 156.015H1036.64V157.072H1029.02V156.015H1032.42V144.807L1029.18 146.741L1028.62 145.844L1032.62 143.371H1033.7V156.015Z" fill="url(#paint82_linear_175_198)"/>
<path d="M1032.5 165.964C1033.93 165.964 1035.01 166.569 1035.74 167.779C1036.49 168.976 1036.86 170.717 1036.86 173.004C1036.86 175.291 1036.49 177.039 1035.74 178.249C1035.01 179.459 1033.93 180.064 1032.5 180.064C1031.09 180.064 1030.01 179.459 1029.26 178.249C1028.51 177.039 1028.14 175.291 1028.14 173.004C1028.14 170.731 1028.51 168.989 1029.26 167.779C1030.01 166.569 1031.09 165.964 1032.5 165.964ZM1029.56 173.004C1029.56 174.626 1029.71 175.896 1030 176.813L1034.44 167.978C1033.97 167.353 1033.33 167.041 1032.5 167.041C1031.58 167.041 1030.86 167.533 1030.34 168.517C1029.82 169.487 1029.56 170.983 1029.56 173.004ZM1032.5 178.967C1033.43 178.967 1034.16 178.482 1034.68 177.511C1035.2 176.528 1035.46 175.025 1035.46 173.004C1035.46 171.289 1035.29 169.959 1034.96 169.015L1030.52 177.93C1031 178.622 1031.66 178.967 1032.5 178.967Z" fill="url(#paint83_linear_175_198)"/>
<path d="M1033.7 201.601H1036.64V202.658H1029.02V201.601H1032.42V190.392L1029.18 192.327L1028.62 191.429L1032.62 188.956H1033.7V201.601Z" fill="url(#paint84_linear_175_198)"/>
<path d="M1033.7 224.393H1036.64V225.45H1029.02V224.393H1032.42V213.185L1029.18 215.12L1028.62 214.222L1032.62 211.749H1033.7V224.393Z" fill="url(#paint85_linear_175_198)"/>
<path d="M1032.5 234.342C1033.93 234.342 1035.01 234.947 1035.74 236.157C1036.49 237.354 1036.86 239.096 1036.86 241.383C1036.86 243.669 1036.49 245.418 1035.74 246.628C1035.01 247.838 1033.93 248.443 1032.5 248.443C1031.09 248.443 1030.01 247.838 1029.26 246.628C1028.51 245.418 1028.14 243.669 1028.14 241.383C1028.14 239.109 1028.51 237.367 1029.26 236.157C1030.01 234.947 1031.09 234.342 1032.5 234.342ZM1029.56 241.383C1029.56 243.005 1029.71 244.274 1030 245.192L1034.44 236.357C1033.97 235.732 1033.33 235.419 1032.5 235.419C1031.58 235.419 1030.86 235.911 1030.34 236.895C1029.82 237.866 1029.56 239.362 1029.56 241.383ZM1032.5 247.346C1033.43 247.346 1034.16 246.86 1034.68 245.89C1035.2 244.906 1035.46 243.404 1035.46 241.383C1035.46 239.667 1035.29 238.338 1034.96 237.394L1030.52 246.309C1031 247 1031.66 247.346 1032.5 247.346Z" fill="url(#paint86_linear_175_198)"/>
<path d="M1033.7 269.979H1036.64V271.036H1029.02V269.979H1032.42V258.771L1029.18 260.705L1028.62 259.808L1032.62 257.335H1033.7V269.979Z" fill="url(#paint87_linear_175_198)"/>
<path d="M1032.5 279.928C1033.93 279.928 1035.01 280.533 1035.74 281.743C1036.49 282.94 1036.86 284.681 1036.86 286.968C1036.86 289.255 1036.49 291.003 1035.74 292.213C1035.01 293.423 1033.93 294.028 1032.5 294.028C1031.09 294.028 1030.01 293.423 1029.26 292.213C1028.51 291.003 1028.14 289.255 1028.14 286.968C1028.14 284.695 1028.51 282.953 1029.26 281.743C1030.01 280.533 1031.09 279.928 1032.5 279.928ZM1029.56 286.968C1029.56 288.59 1029.71 289.86 1030 290.777L1034.44 281.942C1033.97 281.317 1033.33 281.005 1032.5 281.005C1031.58 281.005 1030.86 281.497 1030.34 282.481C1029.82 283.451 1029.56 284.947 1029.56 286.968ZM1032.5 292.931C1033.43 292.931 1034.16 292.446 1034.68 291.475C1035.2 290.492 1035.46 288.989 1035.46 286.968C1035.46 285.253 1035.29 283.923 1034.96 282.979L1030.52 291.894C1031 292.586 1031.66 292.931 1032.5 292.931Z" fill="url(#paint88_linear_175_198)"/>
<path d="M1069.64 74.7928C1071.07 74.7928 1072.15 75.3978 1072.88 76.6077C1073.63 77.8043 1074 79.5461 1074 81.8329C1074 84.1198 1073.63 85.8682 1072.88 87.0781C1072.15 88.288 1071.07 88.893 1069.64 88.893C1068.23 88.893 1067.15 88.288 1066.4 87.0781C1065.65 85.8682 1065.28 84.1198 1065.28 81.8329C1065.28 79.5593 1065.65 77.8176 1066.4 76.6077C1067.15 75.3978 1068.23 74.7928 1069.64 74.7928ZM1066.7 81.8329C1066.7 83.455 1066.85 84.7248 1067.14 85.6422L1071.58 76.8071C1071.11 76.1822 1070.47 75.8698 1069.64 75.8698C1068.72 75.8698 1068 76.3617 1067.48 77.3456C1066.96 78.3162 1066.7 79.812 1066.7 81.8329ZM1069.64 87.7961C1070.57 87.7961 1071.3 87.3108 1071.82 86.3402C1072.34 85.3563 1072.6 83.8539 1072.6 81.8329C1072.6 80.1178 1072.43 78.7882 1072.1 77.8442L1067.66 86.759C1068.14 87.4504 1068.8 87.7961 1069.64 87.7961Z" fill="url(#paint89_linear_175_198)"/>
<path d="M1070.84 110.429H1073.78V111.486H1066.16V110.429H1069.56V99.221L1066.32 101.156L1065.76 100.258L1069.76 97.785H1070.84V110.429Z" fill="url(#paint90_linear_175_198)"/>
<path d="M1070.84 133.222H1073.78V134.279H1066.16V133.222H1069.56V122.014L1066.32 123.948L1065.76 123.051L1069.76 120.578H1070.84V133.222Z" fill="url(#paint91_linear_175_198)"/>
<path d="M1069.64 143.171C1071.07 143.171 1072.15 143.776 1072.88 144.986C1073.63 146.183 1074 147.924 1074 150.211C1074 152.498 1073.63 154.247 1072.88 155.457C1072.15 156.666 1071.07 157.271 1069.64 157.271C1068.23 157.271 1067.15 156.666 1066.4 155.457C1065.65 154.247 1065.28 152.498 1065.28 150.211C1065.28 147.938 1065.65 146.196 1066.4 144.986C1067.15 143.776 1068.23 143.171 1069.64 143.171ZM1066.7 150.211C1066.7 151.833 1066.85 153.103 1067.14 154.021L1071.58 145.186C1071.11 144.561 1070.47 144.248 1069.64 144.248C1068.72 144.248 1068 144.74 1067.48 145.724C1066.96 146.695 1066.7 148.19 1066.7 150.211ZM1069.64 156.174C1070.57 156.174 1071.3 155.689 1071.82 154.719C1072.34 153.735 1072.6 152.232 1072.6 150.211C1072.6 148.496 1072.43 147.167 1072.1 146.223L1067.66 155.137C1068.14 155.829 1068.8 156.174 1069.64 156.174Z" fill="url(#paint92_linear_175_198)"/>
<path d="M1069.64 165.964C1071.07 165.964 1072.15 166.569 1072.88 167.779C1073.63 168.976 1074 170.717 1074 173.004C1074 175.291 1073.63 177.039 1072.88 178.249C1072.15 179.459 1071.07 180.064 1069.64 180.064C1068.23 180.064 1067.15 179.459 1066.4 178.249C1065.65 177.039 1065.28 175.291 1065.28 173.004C1065.28 170.731 1065.65 168.989 1066.4 167.779C1067.15 166.569 1068.23 165.964 1069.64 165.964ZM1066.7 173.004C1066.7 174.626 1066.85 175.896 1067.14 176.813L1071.58 167.978C1071.11 167.353 1070.47 167.041 1069.64 167.041C1068.72 167.041 1068 167.533 1067.48 168.517C1066.96 169.487 1066.7 170.983 1066.7 173.004ZM1069.64 178.967C1070.57 178.967 1071.3 178.482 1071.82 177.511C1072.34 176.528 1072.6 175.025 1072.6 173.004C1072.6 171.289 1072.43 169.959 1072.1 169.015L1067.66 177.93C1068.14 178.622 1068.8 178.967 1069.64 178.967Z" fill="url(#paint93_linear_175_198)"/>
</g>
<defs>
<filter id="filter0_f_175_198" x="-464.19" y="-634.19" width="2141.38" height="1500.38" filterUnits="userSpaceOnUse" color-interpolation-filters="sRGB">
<feFlood flood-opacity="0" result="BackgroundImageFix"/>
<feBlend mode="normal" in="SourceGraphic" in2="BackgroundImageFix" result="shape"/>
<feGaussianBlur stdDeviation="200.095" result="effect1_foregroundBlur_175_198"/>
</filter>
<linearGradient id="paint0_linear_175_198" x1="146.5" y1="352" x2="146.5" y2="663.381" gradientUnits="userSpaceOnUse">
<stop stop-color="#F7DD43"/>
<stop offset="1" stop-color="#F7DD43" stop-opacity="0"/>
</linearGradient>
<linearGradient id="paint1_linear_175_198" x1="146.5" y1="352" x2="146.5" y2="663.381" gradientUnits="userSpaceOnUse">
<stop stop-color="#F7DD43"/>
<stop offset="1" stop-color="#F7DD43" stop-opacity="0"/>
</linearGradient>
<linearGradient id="paint2_linear_175_198" x1="146.5" y1="352" x2="146.5" y2="663.381" gradientUnits="userSpaceOnUse">
<stop stop-color="#F7DD43"/>
<stop offset="1" stop-color="#F7DD43" stop-opacity="0"/>
</linearGradient>
<linearGradient id="paint3_linear_175_198" x1="146.5" y1="352" x2="146.5" y2="663.381" gradientUnits="userSpaceOnUse">
<stop stop-color="#F7DD43"/>
<stop offset="1" stop-color="#F7DD43" stop-opacity="0"/>
</linearGradient>
<linearGradient id="paint4_linear_175_198" x1="146.5" y1="352" x2="146.5" y2="663.381" gradientUnits="userSpaceOnUse">
<stop stop-color="#F7DD43"/>
<stop offset="1" stop-color="#F7DD43" stop-opacity="0"/>
</linearGradient>
<linearGradient id="paint5_linear_175_198" x1="146.5" y1="352" x2="146.5" y2="663.381" gradientUnits="userSpaceOnUse">
<stop stop-color="#F7DD43"/>
<stop offset="1" stop-color="#F7DD43" stop-opacity="0"/>
</linearGradient>
<linearGradient id="paint6_linear_175_198" x1="146.5" y1="352" x2="146.5" y2="663.381" gradientUnits="userSpaceOnUse">
<stop stop-color="#F7DD43"/>
<stop offset="1" stop-color="#F7DD43" stop-opacity="0"/>
</linearGradient>
<linearGradient id="paint7_linear_175_198" x1="146.5" y1="352" x2="146.5" y2="663.381" gradientUnits="userSpaceOnUse">
<stop stop-color="#F7DD43"/>
<stop offset="1" stop-color="#F7DD43" stop-opacity="0"/>
</linearGradient>
<linearGradient id="paint8_linear_175_198" x1="146.5" y1="352" x2="146.5" y2="663.381" gradientUnits="userSpaceOnUse">
<stop stop-color="#F7DD43"/>
<stop offset="1" stop-color="#F7DD43" stop-opacity="0"/>
</linearGradient>
<linearGradient id="paint9_linear_175_198" x1="146.5" y1="352" x2="146.5" y2="663.381" gradientUnits="userSpaceOnUse">
<stop stop-color="#F7DD43"/>
<stop offset="1" stop-color="#F7DD43" stop-opacity="0"/>
</linearGradient>
<linearGradient id="paint10_linear_175_198" x1="146.5" y1="352" x2="146.5" y2="663.381" gradientUnits="userSpaceOnUse">
<stop stop-color="#F7DD43"/>
<stop offset="1" stop-color="#F7DD43" stop-opacity="0"/>
</linearGradient>
<linearGradient id="paint11_linear_175_198" x1="146.5" y1="352" x2="146.5" y2="663.381" gradientUnits="userSpaceOnUse">
<stop stop-color="#F7DD43"/>
<stop offset="1" stop-color="#F7DD43" stop-opacity="0"/>
</linearGradient>
<linearGradient id="paint12_linear_175_198" x1="146.5" y1="352" x2="146.5" y2="663.381" gradientUnits="userSpaceOnUse">
<stop stop-color="#F7DD43"/>
<stop offset="1" stop-color="#F7DD43" stop-opacity="0"/>
</linearGradient>
<linearGradient id="paint13_linear_175_198" x1="146.5" y1="352" x2="146.5" y2="663.381" gradientUnits="userSpaceOnUse">
<stop stop-color="#F7DD43"/>
<stop offset="1" stop-color="#F7DD43" stop-opacity="0"/>
</linearGradient>
<linearGradient id="paint14_linear_175_198" x1="146.5" y1="352" x2="146.5" y2="663.381" gradientUnits="userSpaceOnUse">
<stop stop-color="#F7DD43"/>
<stop offset="1" stop-color="#F7DD43" stop-opacity="0"/>
</linearGradient>
<linearGradient id="paint15_linear_175_198" x1="146.5" y1="352" x2="146.5" y2="663.381" gradientUnits="userSpaceOnUse">
<stop stop-color="#F7DD43"/>
<stop offset="1" stop-color="#F7DD43" stop-opacity="0"/>
</linearGradient>
<linearGradient id="paint16_linear_175_198" x1="146.5" y1="352" x2="146.5" y2="663.381" gradientUnits="userSpaceOnUse">
<stop stop-color="#F7DD43"/>
<stop offset="1" stop-color="#F7DD43" stop-opacity="0"/>
</linearGradient>
<linearGradient id="paint17_linear_175_198" x1="146.5" y1="352" x2="146.5" y2="663.381" gradientUnits="userSpaceOnUse">
<stop stop-color="#F7DD43"/>
<stop offset="1" stop-color="#F7DD43" stop-opacity="0"/>
</linearGradient>
<linearGradient id="paint18_linear_175_198" x1="146.5" y1="352" x2="146.5" y2="663.381" gradientUnits="userSpaceOnUse">
<stop stop-color="#F7DD43"/>
<stop offset="1" stop-color="#F7DD43" stop-opacity="0"/>
</linearGradient>
<linearGradient id="paint19_linear_175_198" x1="146.5" y1="352" x2="146.5" y2="663.381" gradientUnits="userSpaceOnUse">
<stop stop-color="#F7DD43"/>
<stop offset="1" stop-color="#F7DD43" stop-opacity="0"/>
</linearGradient>
<linearGradient id="paint20_linear_175_198" x1="146.5" y1="352" x2="146.5" y2="663.381" gradientUnits="userSpaceOnUse">
<stop stop-color="#F7DD43"/>
<stop offset="1" stop-color="#F7DD43" stop-opacity="0"/>
</linearGradient>
<linearGradient id="paint21_linear_175_198" x1="146.5" y1="352" x2="146.5" y2="663.381" gradientUnits="userSpaceOnUse">
<stop stop-color="#F7DD43"/>
<stop offset="1" stop-color="#F7DD43" stop-opacity="0"/>
</linearGradient>
<linearGradient id="paint22_linear_175_198" x1="146.5" y1="352" x2="146.5" y2="663.381" gradientUnits="userSpaceOnUse">
<stop stop-color="#F7DD43"/>
<stop offset="1" stop-color="#F7DD43" stop-opacity="0"/>
</linearGradient>
<linearGradient id="paint23_linear_175_198" x1="146.5" y1="352" x2="146.5" y2="663.381" gradientUnits="userSpaceOnUse">
<stop stop-color="#F7DD43"/>
<stop offset="1" stop-color="#F7DD43" stop-opacity="0"/>
</linearGradient>
<linearGradient id="paint24_linear_175_198" x1="146.5" y1="352" x2="146.5" y2="663.381" gradientUnits="userSpaceOnUse">
<stop stop-color="#F7DD43"/>
<stop offset="1" stop-color="#F7DD43" stop-opacity="0"/>
</linearGradient>
<linearGradient id="paint25_linear_175_198" x1="146.5" y1="352" x2="146.5" y2="663.381" gradientUnits="userSpaceOnUse">
<stop stop-color="#F7DD43"/>
<stop offset="1" stop-color="#F7DD43" stop-opacity="0"/>
</linearGradient>
<linearGradient id="paint26_linear_175_198" x1="146.5" y1="352" x2="146.5" y2="663.381" gradientUnits="userSpaceOnUse">
<stop stop-color="#F7DD43"/>
<stop offset="1" stop-color="#F7DD43" stop-opacity="0"/>
</linearGradient>
<linearGradient id="paint27_linear_175_198" x1="146.5" y1="352" x2="146.5" y2="663.381" gradientUnits="userSpaceOnUse">
<stop stop-color="#F7DD43"/>
<stop offset="1" stop-color="#F7DD43" stop-opacity="0"/>
</linearGradient>
<linearGradient id="paint28_linear_175_198" x1="146.5" y1="352" x2="146.5" y2="663.381" gradientUnits="userSpaceOnUse">
<stop stop-color="#F7DD43"/>
<stop offset="1" stop-color="#F7DD43" stop-opacity="0"/>
</linearGradient>
<linearGradient id="paint29_linear_175_198" x1="146.5" y1="352" x2="146.5" y2="663.381" gradientUnits="userSpaceOnUse">
<stop stop-color="#F7DD43"/>
<stop offset="1" stop-color="#F7DD43" stop-opacity="0"/>
</linearGradient>
<linearGradient id="paint30_linear_175_198" x1="146.5" y1="352" x2="146.5" y2="663.381" gradientUnits="userSpaceOnUse">
<stop stop-color="#F7DD43"/>
<stop offset="1" stop-color="#F7DD43" stop-opacity="0"/>
</linearGradient>
<linearGradient id="paint31_linear_175_198" x1="146.5" y1="352" x2="146.5" y2="663.381" gradientUnits="userSpaceOnUse">
<stop stop-color="#F7DD43"/>
<stop offset="1" stop-color="#F7DD43" stop-opacity="0"/>
</linearGradient>
<linearGradient id="paint32_linear_175_198" x1="146.5" y1="352" x2="146.5" y2="663.381" gradientUnits="userSpaceOnUse">
<stop stop-color="#F7DD43"/>
<stop offset="1" stop-color="#F7DD43" stop-opacity="0"/>
</linearGradient>
<linearGradient id="paint33_linear_175_198" x1="146.5" y1="352" x2="146.5" y2="663.381" gradientUnits="userSpaceOnUse">
<stop stop-color="#F7DD43"/>
<stop offset="1" stop-color="#F7DD43" stop-opacity="0"/>
</linearGradient>
<linearGradient id="paint34_linear_175_198" x1="146.5" y1="352" x2="146.5" y2="663.381" gradientUnits="userSpaceOnUse">
<stop stop-color="#F7DD43"/>
<stop offset="1" stop-color="#F7DD43" stop-opacity="0"/>
</linearGradient>
<linearGradient id="paint35_linear_175_198" x1="146.5" y1="352" x2="146.5" y2="663.381" gradientUnits="userSpaceOnUse">
<stop stop-color="#F7DD43"/>
<stop offset="1" stop-color="#F7DD43" stop-opacity="0"/>
</linearGradient>
<linearGradient id="paint36_linear_175_198" x1="146.5" y1="352" x2="146.5" y2="663.381" gradientUnits="userSpaceOnUse">
<stop stop-color="#F7DD43"/>
<stop offset="1" stop-color="#F7DD43" stop-opacity="0"/>
</linearGradient>
<linearGradient id="paint37_linear_175_198" x1="146.5" y1="352" x2="146.5" y2="663.381" gradientUnits="userSpaceOnUse">
<stop stop-color="#F7DD43"/>
<stop offset="1" stop-color="#F7DD43" stop-opacity="0"/>
</linearGradient>
<linearGradient id="paint38_linear_175_198" x1="146.5" y1="352" x2="146.5" y2="663.381" gradientUnits="userSpaceOnUse">
<stop stop-color="#F7DD43"/>
<stop offset="1" stop-color="#F7DD43" stop-opacity="0"/>
</linearGradient>
<linearGradient id="paint39_linear_175_198" x1="146.5" y1="352" x2="146.5" y2="663.381" gradientUnits="userSpaceOnUse">
<stop stop-color="#F7DD43"/>
<stop offset="1" stop-color="#F7DD43" stop-opacity="0"/>
</linearGradient>
<linearGradient id="paint40_linear_175_198" x1="146.5" y1="352" x2="146.5" y2="663.381" gradientUnits="userSpaceOnUse">
<stop stop-color="#F7DD43"/>
<stop offset="1" stop-color="#F7DD43" stop-opacity="0"/>
</linearGradient>
<linearGradient id="paint41_linear_175_198" x1="146.5" y1="352" x2="146.5" y2="663.381" gradientUnits="userSpaceOnUse">
<stop stop-color="#F7DD43"/>
<stop offset="1" stop-color="#F7DD43" stop-opacity="0"/>
</linearGradient>
<linearGradient id="paint42_linear_175_198" x1="146.5" y1="352" x2="146.5" y2="663.381" gradientUnits="userSpaceOnUse">
<stop stop-color="#F7DD43"/>
<stop offset="1" stop-color="#F7DD43" stop-opacity="0"/>
</linearGradient>
<linearGradient id="paint43_linear_175_198" x1="146.5" y1="352" x2="146.5" y2="663.381" gradientUnits="userSpaceOnUse">
<stop stop-color="#F7DD43"/>
<stop offset="1" stop-color="#F7DD43" stop-opacity="0"/>
</linearGradient>
<linearGradient id="paint44_linear_175_198" x1="146.5" y1="352" x2="146.5" y2="663.381" gradientUnits="userSpaceOnUse">
<stop stop-color="#F7DD43"/>
<stop offset="1" stop-color="#F7DD43" stop-opacity="0"/>
</linearGradient>
<linearGradient id="paint45_linear_175_198" x1="146.5" y1="352" x2="146.5" y2="663.381" gradientUnits="userSpaceOnUse">
<stop stop-color="#F7DD43"/>
<stop offset="1" stop-color="#F7DD43" stop-opacity="0"/>
</linearGradient>
<linearGradient id="paint46_linear_175_198" x1="146.5" y1="352" x2="146.5" y2="663.381" gradientUnits="userSpaceOnUse">
<stop stop-color="#F7DD43"/>
<stop offset="1" stop-color="#F7DD43" stop-opacity="0"/>
</linearGradient>
<linearGradient id="paint47_linear_175_198" x1="1032.5" y1="52" x2="1032.5" y2="350.818" gradientUnits="userSpaceOnUse">
<stop stop-color="#F7DD43"/>
<stop offset="1" stop-color="#F7DD43" stop-opacity="0"/>
</linearGradient>
<linearGradient id="paint48_linear_175_198" x1="1032.5" y1="52" x2="1032.5" y2="350.818" gradientUnits="userSpaceOnUse">
<stop stop-color="#F7DD43"/>
<stop offset="1" stop-color="#F7DD43" stop-opacity="0"/>
</linearGradient>
<linearGradient id="paint49_linear_175_198" x1="1032.5" y1="52" x2="1032.5" y2="350.818" gradientUnits="userSpaceOnUse">
<stop stop-color="#F7DD43"/>
<stop offset="1" stop-color="#F7DD43" stop-opacity="0"/>
</linearGradient>
<linearGradient id="paint50_linear_175_198" x1="1032.5" y1="52" x2="1032.5" y2="350.818" gradientUnits="userSpaceOnUse">
<stop stop-color="#F7DD43"/>
<stop offset="1" stop-color="#F7DD43" stop-opacity="0"/>
</linearGradient>
<linearGradient id="paint51_linear_175_198" x1="1032.5" y1="52" x2="1032.5" y2="350.818" gradientUnits="userSpaceOnUse">
<stop stop-color="#F7DD43"/>
<stop offset="1" stop-color="#F7DD43" stop-opacity="0"/>
</linearGradient>
<linearGradient id="paint52_linear_175_198" x1="1032.5" y1="52" x2="1032.5" y2="350.818" gradientUnits="userSpaceOnUse">
<stop stop-color="#F7DD43"/>
<stop offset="1" stop-color="#F7DD43" stop-opacity="0"/>
</linearGradient>
<linearGradient id="paint53_linear_175_198" x1="1032.5" y1="52" x2="1032.5" y2="350.818" gradientUnits="userSpaceOnUse">
<stop stop-color="#F7DD43"/>
<stop offset="1" stop-color="#F7DD43" stop-opacity="0"/>
</linearGradient>
<linearGradient id="paint54_linear_175_198" x1="1032.5" y1="52" x2="1032.5" y2="350.818" gradientUnits="userSpaceOnUse">
<stop stop-color="#F7DD43"/>
<stop offset="1" stop-color="#F7DD43" stop-opacity="0"/>
</linearGradient>
<linearGradient id="paint55_linear_175_198" x1="1032.5" y1="52" x2="1032.5" y2="350.818" gradientUnits="userSpaceOnUse">
<stop stop-color="#F7DD43"/>
<stop offset="1" stop-color="#F7DD43" stop-opacity="0"/>
</linearGradient>
<linearGradient id="paint56_linear_175_198" x1="1032.5" y1="52" x2="1032.5" y2="350.818" gradientUnits="userSpaceOnUse">
<stop stop-color="#F7DD43"/>
<stop offset="1" stop-color="#F7DD43" stop-opacity="0"/>
</linearGradient>
<linearGradient id="paint57_linear_175_198" x1="1032.5" y1="52" x2="1032.5" y2="350.818" gradientUnits="userSpaceOnUse">
<stop stop-color="#F7DD43"/>
<stop offset="1" stop-color="#F7DD43" stop-opacity="0"/>
</linearGradient>
<linearGradient id="paint58_linear_175_198" x1="1032.5" y1="52" x2="1032.5" y2="350.818" gradientUnits="userSpaceOnUse">
<stop stop-color="#F7DD43"/>
<stop offset="1" stop-color="#F7DD43" stop-opacity="0"/>
</linearGradient>
<linearGradient id="paint59_linear_175_198" x1="1032.5" y1="52" x2="1032.5" y2="350.818" gradientUnits="userSpaceOnUse">
<stop stop-color="#F7DD43"/>
<stop offset="1" stop-color="#F7DD43" stop-opacity="0"/>
</linearGradient>
<linearGradient id="paint60_linear_175_198" x1="1032.5" y1="52" x2="1032.5" y2="350.818" gradientUnits="userSpaceOnUse">
<stop stop-color="#F7DD43"/>
<stop offset="1" stop-color="#F7DD43" stop-opacity="0"/>
</linearGradient>
<linearGradient id="paint61_linear_175_198" x1="1032.5" y1="52" x2="1032.5" y2="350.818" gradientUnits="userSpaceOnUse">
<stop stop-color="#F7DD43"/>
<stop offset="1" stop-color="#F7DD43" stop-opacity="0"/>
</linearGradient>
<linearGradient id="paint62_linear_175_198" x1="1032.5" y1="52" x2="1032.5" y2="350.818" gradientUnits="userSpaceOnUse">
<stop stop-color="#F7DD43"/>
<stop offset="1" stop-color="#F7DD43" stop-opacity="0"/>
</linearGradient>
<linearGradient id="paint63_linear_175_198" x1="1032.5" y1="52" x2="1032.5" y2="350.818" gradientUnits="userSpaceOnUse">
<stop stop-color="#F7DD43"/>
<stop offset="1" stop-color="#F7DD43" stop-opacity="0"/>
</linearGradient>
<linearGradient id="paint64_linear_175_198" x1="1032.5" y1="52" x2="1032.5" y2="350.818" gradientUnits="userSpaceOnUse">
<stop stop-color="#F7DD43"/>
<stop offset="1" stop-color="#F7DD43" stop-opacity="0"/>
</linearGradient>
<linearGradient id="paint65_linear_175_198" x1="1032.5" y1="52" x2="1032.5" y2="350.818" gradientUnits="userSpaceOnUse">
<stop stop-color="#F7DD43"/>
<stop offset="1" stop-color="#F7DD43" stop-opacity="0"/>
</linearGradient>
<linearGradient id="paint66_linear_175_198" x1="1032.5" y1="52" x2="1032.5" y2="350.818" gradientUnits="userSpaceOnUse">
<stop stop-color="#F7DD43"/>
<stop offset="1" stop-color="#F7DD43" stop-opacity="0"/>
</linearGradient>
<linearGradient id="paint67_linear_175_198" x1="1032.5" y1="52" x2="1032.5" y2="350.818" gradientUnits="userSpaceOnUse">
<stop stop-color="#F7DD43"/>
<stop offset="1" stop-color="#F7DD43" stop-opacity="0"/>
</linearGradient>
<linearGradient id="paint68_linear_175_198" x1="1032.5" y1="52" x2="1032.5" y2="350.818" gradientUnits="userSpaceOnUse">
<stop stop-color="#F7DD43"/>
<stop offset="1" stop-color="#F7DD43" stop-opacity="0"/>
</linearGradient>
<linearGradient id="paint69_linear_175_198" x1="1032.5" y1="52" x2="1032.5" y2="350.818" gradientUnits="userSpaceOnUse">
<stop stop-color="#F7DD43"/>
<stop offset="1" stop-color="#F7DD43" stop-opacity="0"/>
</linearGradient>
<linearGradient id="paint70_linear_175_198" x1="1032.5" y1="52" x2="1032.5" y2="350.818" gradientUnits="userSpaceOnUse">
<stop stop-color="#F7DD43"/>
<stop offset="1" stop-color="#F7DD43" stop-opacity="0"/>
</linearGradient>
<linearGradient id="paint71_linear_175_198" x1="1032.5" y1="52" x2="1032.5" y2="350.818" gradientUnits="userSpaceOnUse">
<stop stop-color="#F7DD43"/>
<stop offset="1" stop-color="#F7DD43" stop-opacity="0"/>
</linearGradient>
<linearGradient id="paint72_linear_175_198" x1="1032.5" y1="52" x2="1032.5" y2="350.818" gradientUnits="userSpaceOnUse">
<stop stop-color="#F7DD43"/>
<stop offset="1" stop-color="#F7DD43" stop-opacity="0"/>
</linearGradient>
<linearGradient id="paint73_linear_175_198" x1="1032.5" y1="52" x2="1032.5" y2="350.818" gradientUnits="userSpaceOnUse">
<stop stop-color="#F7DD43"/>
<stop offset="1" stop-color="#F7DD43" stop-opacity="0"/>
</linearGradient>
<linearGradient id="paint74_linear_175_198" x1="1032.5" y1="52" x2="1032.5" y2="350.818" gradientUnits="userSpaceOnUse">
<stop stop-color="#F7DD43"/>
<stop offset="1" stop-color="#F7DD43" stop-opacity="0"/>
</linearGradient>
<linearGradient id="paint75_linear_175_198" x1="1032.5" y1="52" x2="1032.5" y2="350.818" gradientUnits="userSpaceOnUse">
<stop stop-color="#F7DD43"/>
<stop offset="1" stop-color="#F7DD43" stop-opacity="0"/>
</linearGradient>
<linearGradient id="paint76_linear_175_198" x1="1032.5" y1="52" x2="1032.5" y2="350.818" gradientUnits="userSpaceOnUse">
<stop stop-color="#F7DD43"/>
<stop offset="1" stop-color="#F7DD43" stop-opacity="0"/>
</linearGradient>
<linearGradient id="paint77_linear_175_198" x1="1032.5" y1="52" x2="1032.5" y2="350.818" gradientUnits="userSpaceOnUse">
<stop stop-color="#F7DD43"/>
<stop offset="1" stop-color="#F7DD43" stop-opacity="0"/>
</linearGradient>
<linearGradient id="paint78_linear_175_198" x1="1032.5" y1="52" x2="1032.5" y2="350.818" gradientUnits="userSpaceOnUse">
<stop stop-color="#F7DD43"/>
<stop offset="1" stop-color="#F7DD43" stop-opacity="0"/>
</linearGradient>
<linearGradient id="paint79_linear_175_198" x1="1032.5" y1="52" x2="1032.5" y2="350.818" gradientUnits="userSpaceOnUse">
<stop stop-color="#F7DD43"/>
<stop offset="1" stop-color="#F7DD43" stop-opacity="0"/>
</linearGradient>
<linearGradient id="paint80_linear_175_198" x1="1032.5" y1="52" x2="1032.5" y2="350.818" gradientUnits="userSpaceOnUse">
<stop stop-color="#F7DD43"/>
<stop offset="1" stop-color="#F7DD43" stop-opacity="0"/>
</linearGradient>
<linearGradient id="paint81_linear_175_198" x1="1032.5" y1="52" x2="1032.5" y2="350.818" gradientUnits="userSpaceOnUse">
<stop stop-color="#F7DD43"/>
<stop offset="1" stop-color="#F7DD43" stop-opacity="0"/>
</linearGradient>
<linearGradient id="paint82_linear_175_198" x1="1032.5" y1="52" x2="1032.5" y2="350.818" gradientUnits="userSpaceOnUse">
<stop stop-color="#F7DD43"/>
<stop offset="1" stop-color="#F7DD43" stop-opacity="0"/>
</linearGradient>
<linearGradient id="paint83_linear_175_198" x1="1032.5" y1="52" x2="1032.5" y2="350.818" gradientUnits="userSpaceOnUse">
<stop stop-color="#F7DD43"/>
<stop offset="1" stop-color="#F7DD43" stop-opacity="0"/>
</linearGradient>
<linearGradient id="paint84_linear_175_198" x1="1032.5" y1="52" x2="1032.5" y2="350.818" gradientUnits="userSpaceOnUse">
<stop stop-color="#F7DD43"/>
<stop offset="1" stop-color="#F7DD43" stop-opacity="0"/>
</linearGradient>
<linearGradient id="paint85_linear_175_198" x1="1032.5" y1="52" x2="1032.5" y2="350.818" gradientUnits="userSpaceOnUse">
<stop stop-color="#F7DD43"/>
<stop offset="1" stop-color="#F7DD43" stop-opacity="0"/>
</linearGradient>
<linearGradient id="paint86_linear_175_198" x1="1032.5" y1="52" x2="1032.5" y2="350.818" gradientUnits="userSpaceOnUse">
<stop stop-color="#F7DD43"/>
<stop offset="1" stop-color="#F7DD43" stop-opacity="0"/>
</linearGradient>
<linearGradient id="paint87_linear_175_198" x1="1032.5" y1="52" x2="1032.5" y2="350.818" gradientUnits="userSpaceOnUse">
<stop stop-color="#F7DD43"/>
<stop offset="1" stop-color="#F7DD43" stop-opacity="0"/>
</linearGradient>
<linearGradient id="paint88_linear_175_198" x1="1032.5" y1="52" x2="1032.5" y2="350.818" gradientUnits="userSpaceOnUse">
<stop stop-color="#F7DD43"/>
<stop offset="1" stop-color="#F7DD43" stop-opacity="0"/>
</linearGradient>
<linearGradient id="paint89_linear_175_198" x1="1032.5" y1="52" x2="1032.5" y2="350.818" gradientUnits="userSpaceOnUse">
<stop stop-color="#F7DD43"/>
<stop offset="1" stop-color="#F7DD43" stop-opacity="0"/>
</linearGradient>
<linearGradient id="paint90_linear_175_198" x1="1032.5" y1="52" x2="1032.5" y2="350.818" gradientUnits="userSpaceOnUse">
<stop stop-color="#F7DD43"/>
<stop offset="1" stop-color="#F7DD43" stop-opacity="0"/>
</linearGradient>
<linearGradient id="paint91_linear_175_198" x1="1032.5" y1="52" x2="1032.5" y2="350.818" gradientUnits="userSpaceOnUse">
<stop stop-color="#F7DD43"/>
<stop offset="1" stop-color="#F7DD43" stop-opacity="0"/>
</linearGradient>
<linearGradient id="paint92_linear_175_198" x1="1032.5" y1="52" x2="1032.5" y2="350.818" gradientUnits="userSpaceOnUse">
<stop stop-color="#F7DD43"/>
<stop offset="1" stop-color="#F7DD43" stop-opacity="0"/>
</linearGradient>
<linearGradient id="paint93_linear_175_198" x1="1032.5" y1="52" x2="1032.5" y2="350.818" gradientUnits="userSpaceOnUse">
<stop stop-color="#F7DD43"/>
<stop offset="1" stop-color="#F7DD43" stop-opacity="0"/>
</linearGradient>
</defs>
</svg>
